custom-analysis
version=1
nRows=7
nColumns=98
inDegrees=no

This file contains tibia displacement and acting force.

Units are S.I. units (seconds, meters, Newtons, ...)
Angles are in degrees.

endheader
time	APT	SIT	knee_angle	aACL_R_force	pACL_R_force	aPCL_R_force	pPCL_R_force	aMCL_R_force	mMCL_R_force	pMCL_R_force	aLCL_R_force	mLCL_R_force	pLCL_R_force	aPCL_L_force	pPCL_L_force	aMCL_L_force	aLCL_L_force	aACL_R_length	pACL_R_length	aPCL_R_length	pPCL_R_length	aMCL_R_length	mMCL_R_length	pMCL_R_length	aLCL_R_length	mLCL_R_length	pLCL_R_length	aPCL_L_length	pPCL_L_length	aMCL_L_length	aLCL_L_length	aACL_R_strain	pACL_R_strain	aPCL_R_strain	pPCL_R_strain	aMCL_R_strain	mMCL_R_strain	pMCL_R_strain	aLCL_R_strain	mLCL_R_strain	pLCL_R_strain	aPCL_L_strain	pPCL_L_strain	aMCL_L_strain	aLCL_L_strain	femur_lat_meniscii_r.femur_lat_r.force.X	femur_lat_meniscii_r.femur_lat_r.force.Y	femur_lat_meniscii_r.femur_lat_r.force.Z	femur_lat_meniscii_r.femur_lat_r.torque.X	femur_lat_meniscii_r.femur_lat_r.torque.Y	femur_lat_meniscii_r.femur_lat_r.torque.Z	femur_lat_meniscii_r.meniscus_lat_r.force.X	femur_lat_meniscii_r.meniscus_lat_r.force.Y	femur_lat_meniscii_r.meniscus_lat_r.force.Z	femur_lat_meniscii_r.meniscus_lat_r.torque.X	femur_lat_meniscii_r.meniscus_lat_r.torque.Y	femur_lat_meniscii_r.meniscus_lat_r.torque.Z	femur_med_meniscii_r.femur_med_r.force.X	femur_med_meniscii_r.femur_med_r.force.Y	femur_med_meniscii_r.femur_med_r.force.Z	femur_med_meniscii_r.femur_med_r.torque.X	femur_med_meniscii_r.femur_med_r.torque.Y	femur_med_meniscii_r.femur_med_r.torque.Z	femur_med_meniscii_r.meniscus_med_r.force.X	femur_med_meniscii_r.meniscus_med_r.force.Y	femur_med_meniscii_r.meniscus_med_r.force.Z	femur_med_meniscii_r.meniscus_med_r.torque.X	femur_med_meniscii_r.meniscus_med_r.torque.Y	femur_med_meniscii_r.meniscus_med_r.torque.Z	femur_med_tibia_r.tibia_upper_r.force.X	femur_med_tibia_r.tibia_upper_r.force.Y	femur_med_tibia_r.tibia_upper_r.force.Z	femur_med_tibia_r.tibia_upper_r.torque.X	femur_med_tibia_r.tibia_upper_r.torque.Y	femur_med_tibia_r.tibia_upper_r.torque.Z	femur_med_tibia_r.femur_med_r.force.X	femur_med_tibia_r.femur_med_r.force.Y	femur_med_tibia_r.femur_med_r.force.Z	femur_med_tibia_r.femur_med_r.torque.X	femur_med_tibia_r.femur_med_r.torque.Y	femur_med_tibia_r.femur_med_r.torque.Z	femur_lat_tibia_r.tibia_upper_r.force.X	femur_lat_tibia_r.tibia_upper_r.force.Y	femur_lat_tibia_r.tibia_upper_r.force.Z	femur_lat_tibia_r.tibia_upper_r.torque.X	femur_lat_tibia_r.tibia_upper_r.torque.Y	femur_lat_tibia_r.tibia_upper_r.torque.Z	femur_lat_tibia_r.femur_lat_r.force.X	femur_lat_tibia_r.femur_lat_r.force.Y	femur_lat_tibia_r.femur_lat_r.force.Z	femur_lat_tibia_r.femur_lat_r.torque.X	femur_lat_tibia_r.femur_lat_r.torque.Y	femur_lat_tibia_r.femur_lat_r.torque.Z	femur_lat_meniscii_force_r	femur_med_meniscii_force_r	femur_lat_tibia_force_r	femur_med_tibia_force_r
      0.20810428	      0.01375395	      0.02574302	     80.17983297	     -4.50364824	      0.00000000	    946.51993959	    592.85435943	     28.25798789	      0.00000000	      0.00000000	      0.00000000	      0.00000000	      0.00000000	      0.00000000	      0.00000000	      0.00000001	      0.00000000	      0.03108665	      0.02438421	      0.03706540	      0.03384303	      0.06131079	      0.05976832	      0.05639695	      0.05050601	      0.04508220	      0.04004300	      0.01525851	      0.01651186	      0.06550154	      0.04489616	      0.00261726	     -0.02691656	      0.19199375	      0.13233583	      0.02138689	     -0.00042116	     -0.03969236	     -0.09773962	     -0.19951495	     -0.23498398	      0.00000079	     -0.32847694	      0.00000060	     -0.00000086	    246.33449815	    160.87941024	     24.04727577	    -13.36451590	      5.82669743	     97.77846839	   -246.33449815	   -160.87941024	    -24.04727577	      4.23294631	     -7.00244751	      3.62905136	      0.51638757	     -0.01236253	     -0.10695343	      0.04251751	     -0.00844253	      0.20561569	     -0.51638757	      0.01236253	      0.10695343	     -0.00039525	      0.01021387	     -0.00244768	   -985.53772120	   -401.73386781	    294.27739676	     -8.88595830	     23.10142721	      1.98625363	    985.53772120	    401.73386781	   -294.27739676	    125.71815834	    -17.29393308	    397.21398586	    -99.14175706	    -49.96672747	    -28.29601188	      1.57928815	     -3.41043234	      0.48978246	     99.14175706	     49.96672747	     28.29601188	    -12.62314678	      2.43606139	     39.92558357	    295.19678367	      0.52749217	    114.57061637	   1104.20735675
      0.20863642	      0.01373366	      0.02584622	     80.46585421	     -4.83475288	      0.00000000	    950.76171587	    596.51151036	     27.85931756	      0.00000000	      0.00000000	      0.00000000	      0.00000000	      0.00000000	      0.00000000	      0.00000000	      0.00000001	      0.00000000	      0.03108041	      0.02439192	      0.03708829	      0.03386154	      0.06132911	      0.05977857	      0.05641028	      0.05047052	      0.04504265	      0.04000873	      0.01525851	      0.01651186	      0.06550154	      0.04489616	      0.00241611	     -0.02660864	      0.19272983	      0.13295515	      0.02169204	     -0.00024962	     -0.03946528	     -0.09837363	     -0.20021711	     -0.23563876	      0.00000079	     -0.32847694	      0.00000060	     -0.00000086	    245.44932489	    161.18145654	     22.71203580	    -12.82878103	      5.78613594	     97.39272423	   -245.44932489	   -161.18145654	    -22.71203580	      4.22474067	     -6.92984865	      3.70790799	      0.38565701	     -0.02262097	     -0.09003044	      0.03551011	     -0.00620201	      0.15359394	     -0.38565701	      0.02262097	      0.09003044	     -0.00007019	      0.00779595	     -0.00218294	   -980.20515205	   -398.13389531	    297.05352980	     -8.80409637	     23.12377326	      2.12080980	    980.20515205	    398.13389531	   -297.05352980	    126.76034323	    -17.23221526	    395.00273187	   -110.23128311	    -54.18976581	    -31.14478593	      1.71624538	     -3.78568484	      0.51426926	    110.23128311	     54.18976581	     31.14478593	    -13.87587540	      2.70709414	     44.39919393	    294.51768978	      0.39667180	    126.71804996	   1098.88740928
      0.20916856	      0.01371307	      0.02594913	     80.75180627	     -3.92991587	      0.00000000	    954.43467749	    598.39260590	     28.26137824	      0.00000000	      0.00000000	      0.00000000	      0.00000000	      0.00000000	      0.00000000	      0.00000000	      0.00000001	      0.00000000	      0.03107462	      0.02440017	      0.03711103	      0.03387996	      0.06134738	      0.05978893	      0.05642391	      0.05043511	      0.04500329	      0.03997475	      0.01525851	      0.01651186	      0.06550154	      0.04489616	      0.00222928	     -0.02627953	      0.19346108	      0.13357167	      0.02199640	     -0.00007640	     -0.03923323	     -0.09900618	     -0.20091603	     -0.23628794	      0.00000079	     -0.32847694	      0.00000060	     -0.00000086	    246.71616052	    158.32056805	     22.40198663	    -12.63102104	      5.80886900	     97.92111477	   -246.71616052	   -158.32056805	    -22.40198663	      4.14369888	     -6.95282093	      3.63553253	      0.30988967	     -0.02068483	     -0.07894161	      0.03107128	     -0.00494858	      0.12336938	     -0.30988967	      0.02068483	      0.07894161	      0.00000947	      0.00640575	     -0.00174201	   -975.94793282	   -387.85563397	    297.28674653	     -8.61483182	     23.05630017	      1.98113683	    975.94793282	    387.85563397	   -297.28674653	    126.67859270	    -17.15170528	    393.30797423	   -120.42067542	    -57.96106523	    -33.77696865	      1.83954526	     -4.13225532	      0.53750588	    120.42067542	     57.96106523	     33.77696865	    -15.03095938	      2.95653140	     48.50967848	    294.00019580	      0.32045475	    137.84595664	   1091.46038409
      0.20987068	      0.01368543	      0.02608466	     81.12897901	     -3.80848868	      0.00000000	    959.22719034	    601.15804343	     27.40284685	     13.62890082	      0.00000000	      0.00000000	      0.00000000	      0.00000000	      0.00000000	      0.00000000	      0.00000001	      0.00000000	      0.03106755	      0.02441174	      0.03714061	      0.03390396	      0.06137117	      0.05980252	      0.05644211	      0.05038833	      0.04495145	      0.03993017	      0.01525851	      0.01651186	      0.06550154	      0.04489616	      0.00200112	     -0.02581758	      0.19441228	      0.13437463	      0.02239279	      0.00015083	     -0.03892332	     -0.09984184	     -0.20183657	     -0.23713970	      0.00000079	     -0.32847694	      0.00000060	     -0.00000086	    249.11521214	    156.62561952	     21.04491494	    -12.03308744	      5.85464787	     98.88619966	   -249.11521214	   -156.62561952	    -21.04491494	      4.07824889	     -6.97494221	      3.61543056	      0.19692749	     -0.01602401	     -0.05780187	      0.02274408	     -0.00314765	      0.07841195	     -0.19692749	      0.01602401	      0.05780187	      0.00001911	      0.00427909	     -0.00117280	   -971.08359381	   -382.30464576	    299.31469664	     -8.49149252	     23.04573874	      2.09442563	    971.08359381	    382.30464576	   -299.31469664	    127.39315600	    -17.07935559	    391.28562554	   -133.69224693	    -62.70108109	    -37.67655080	      2.00165601	     -4.60409866	      0.56510692	    133.69224693	     62.70108109	     37.67655080	    -16.72383008	      3.28798923	     53.86561913	    295.01332521	      0.20585981	    152.39607915	   1085.70229620
      0.21017184	      0.01367320	      0.02614285	     81.29066917	     -3.89166413	      0.00000000	    961.42228352	    602.84583297	     27.07327244	     13.46143611	      0.00000000	      0.00000000	      0.00000000	      0.00000000	      0.00000000	      0.00000000	      0.00000001	      0.00000000	      0.03106455	      0.02441685	      0.03715304	      0.03391406	      0.06138105	      0.05980812	      0.05644981	      0.05036807	      0.04492907	      0.03991098	      0.01525851	      0.01651186	      0.06550154	      0.04489616	      0.00190457	     -0.02561386	      0.19481215	      0.13471238	      0.02255741	      0.00024457	     -0.03879222	     -0.10020379	     -0.20223391	     -0.23750634	      0.00000079	     -0.32847694	      0.00000060	     -0.00000086	    249.38081734	    157.67115156	     20.27582170	    -11.74722841	      5.85442826	     98.96881738	   -249.38081734	   -157.67115156	    -20.27582170	      4.09863013	     -6.95786650	      3.68517604	      0.15618615	     -0.01076744	     -0.05085369	      0.02005905	     -0.00250657	      0.06216882	     -0.15618615	      0.01076744	      0.05085369	     -0.00002195	      0.00353946	     -0.00084789	   -970.14320881	   -379.81783243	    299.62071509	     -8.42704766	     23.03323820	      2.12014635	    970.14320881	    379.81783243	   -299.62071509	    127.46566727	    -17.05839523	    390.88959692	   -139.45464545	    -65.33424590	    -39.03854177	      2.08014772	     -4.79640051	      0.60166984	    139.45464545	     65.33424590	     39.03854177	    -17.33526053	      3.42793451	     56.18334165	    295.73990775	      0.16460908	    158.87155053	   1084.07195533
      0.21024158	      0.01367031	      0.02615632	     81.32809761	     -3.90779147	      0.00000000	    961.93821700	    603.25792814	     27.00783396	     13.43523408	      0.00000000	      0.00000000	      0.00000000	      0.00000000	      0.00000000	      0.00000000	      0.00000001	      0.00000000	      0.03106385	      0.02441804	      0.03715592	      0.03391640	      0.06138332	      0.05980941	      0.05645160	      0.05036338	      0.04492389	      0.03990654	      0.01525851	      0.01651186	      0.06550154	      0.04489616	      0.00188197	     -0.02556632	      0.19490477	      0.13479084	      0.02259519	      0.00026614	     -0.03876179	     -0.10028767	     -0.20232588	     -0.23759101	      0.00000079	     -0.32847694	      0.00000060	     -0.00000086	    249.08848004	    157.72098106	     20.20663456	    -11.72056692	      5.84711306	     98.84715263	   -249.08848004	   -157.72098106	    -20.20663456	      4.09951242	     -6.94881636	      3.69731620	      0.14683587	     -0.00952458	     -0.04903147	      0.01935261	     -0.00235650	      0.05844106	     -0.14683587	      0.00952458	      0.04903147	     -0.00003095	      0.00336066	     -0.00077304	   -969.85379212	   -379.39156497	    299.75936452	     -8.41417596	     23.03204704	      2.13232886	    969.85379212	    379.39156497	   -299.75936452	    127.51158013	    -17.05327224	    390.76737581	   -140.77158751	    -65.97315574	    -39.36905802	      2.09922482	     -4.84113800	      0.61173225	    140.77158751	     65.97315574	     39.36905802	    -17.48366181	      3.46014426	     56.71247733	    295.51529036	      0.15509860	    160.37150576	   1083.70199514
      0.21027544	      0.01366889	      0.02616285	     81.34627070	     -3.91390347	      0.00000000	    962.18849483	    603.45692409	     26.97801349	     13.42393212	      0.00000000	      0.00000000	      0.00000000	      0.00000000	      0.00000000	      0.00000000	      0.00000001	      0.00000000	      0.03106351	      0.02441862	      0.03715732	      0.03391754	      0.06138442	      0.05981004	      0.05645247	      0.05036110	      0.04492137	      0.03990439	      0.01525851	      0.01651186	      0.06550154	      0.04489616	      0.00187097	     -0.02554318	      0.19494976	      0.13482899	      0.02261349	      0.00027660	     -0.03874700	     -0.10032841	     -0.20237053	     -0.23763210	      0.00000079	     -0.32847694	      0.00000060	     -0.00000086	    249.04539144	    157.73510453	     20.06857617	    -11.66399477	      5.84395979	     98.82758205	   -249.04539144	   -157.73510453	    -20.06857617	      4.09750484	     -6.94220539	      3.70242868	      0.14228541	     -0.00892495	     -0.04814052	      0.01900710	     -0.00228342	      0.05662699	     -0.14228541	      0.00892495	      0.04814052	     -0.00003529	      0.00327350	     -0.00073694	   -969.67401014	   -379.08125435	    300.09476816	     -8.40967489	     23.04142731	      2.13474276	    969.67401014	    379.08125435	   -300.09476816	    127.64115248	    -17.05338416	    390.69323170	   -141.40848582	    -66.27489397	    -39.53648333	      2.10837366	     -4.86308409	      0.61633076	    141.40848582	     66.27489397	     39.53648333	    -17.55836362	      3.47582034	     56.96846820	    295.47710225	      0.15047359	    161.09579432	   1083.52533575
